<svg id="Layer_1" data-name="Layer 1" xmlns="http://www.w3.org/2000/svg" viewBox="0 0 63 83.71"><defs><style>.cls-1{fill:#616161;}</style></defs><title>flag2</title><path class="cls-1" d="M28,49.6l0.6-.2a33.65,33.65,0,0,1,24,.2,38.28,38.28,0,0,0,13.7,2.6,37,37,0,0,0,13.1-2.4l0.6-.2a2,2,0,0,0,1.3-1.9V13.4a1.7,1.7,0,0,0-.9-1.6,1.68,1.68,0,0,0-1.8-.2l-0.6.1a33.65,33.65,0,0,1-24-.2,37.26,37.26,0,0,0-26.9-.2l-0.6.2a2,2,0,0,0-1.3,1.9V47.7a1.7,1.7,0,0,0,.9,1.6A2.19,2.19,0,0,0,28,49.6Zm1.3-34.8a33.37,33.37,0,0,1,23.3.5,37.4,37.4,0,0,0,24.7,1V46.4A33.37,33.37,0,0,1,54,45.9a38.28,38.28,0,0,0-13.7-2.6,37.67,37.67,0,0,0-11,1.7V14.8Z" transform="translate(-18.3 -8.89)"/><path class="cls-1" d="M18.3,13.1V90.6a2,2,0,0,0,4,0V13.1A2,2,0,0,0,18.3,13.1Z" transform="translate(-18.3 -8.89)"/></svg>