<svg id="Layer_1" data-name="Layer 1" xmlns="http://www.w3.org/2000/svg" viewBox="0 0 15.61 31.93"><defs><style>.cls-1{fill:#616161;}</style></defs><title>innovation2</title><path class="cls-1" d="M17.07,0.07l-0.13,1,0.24,0,0.57,0.13h0l0.07,0,0.3-1L18,0.26h0l-0.61-.13h0Zm-2.12,0-0.3,0h0L14,0.27h0l-0.06,0,0.3,1,0.05,0h0l0.55-.12,0.29,0Zm-3,1.05-0.35.22,0,0-0.47.35,0.6,0.8,0.44-.33h0L12.47,2Zm8.13,0L19.55,2l0.29,0.18h0l0.44,0.33h0l0.08-.11L21,1.78l0,0,0,0-0.49-.37,0,0ZM16,2a5.71,5.71,0,0,0-5.68,5.72A7.06,7.06,0,0,0,12,11.78,9,9,0,0,1,13.11,14l-0.37-.18h0l-0.3-.18-0.52.86,0.3,0.18,0,0L12.84,15l0.35-.72A6.66,6.66,0,0,1,13.43,16a0.5,0.5,0,0,0,0,.14v2.43a0.5,0.5,0,0,0,0,.1h0a0.5,0.5,0,0,0,.11.22h0a0.5,0.5,0,0,0,.38.18h1.61V23.6a5.4,5.4,0,0,0-4.87-3.1h0a5.36,5.36,0,0,0-1.87.34,0.5,0.5,0,0,0-.32.52,5.41,5.41,0,0,0,5.37,4.8h0a5.33,5.33,0,0,0,1.69-.29V32h1V28.21a5.35,5.35,0,0,0,1.68.29h0a5.36,5.36,0,0,0,5.32-4.75,0.5,0.5,0,0,0-.32-0.53,5.36,5.36,0,0,0-1.85-.34h0A5.34,5.34,0,0,0,16.53,26V19.08h1.59l0.1,0a0.5,0.5,0,0,0,.35-0.48V16.14a0.5,0.5,0,0,0,0-.14,6.65,6.65,0,0,1,.24-1.78L19.19,15l0.58-.29,0,0,0.26-.16-0.52-.85-0.24.15L18.89,14A9,9,0,0,1,20,11.78a7.06,7.06,0,0,0,1.64-4.06A5.71,5.71,0,0,0,16,2Zm0,1a4.69,4.69,0,0,1,4.68,4.72,6.12,6.12,0,0,1-1.47,3.51,8.68,8.68,0,0,0-1.54,4.34H16.5V12.38a0.5,0.5,0,1,0-1,0s0,0,0,0v3.19H14.33a8.68,8.68,0,0,0-1.54-4.34,6.12,6.12,0,0,1-1.47-3.51A4.69,4.69,0,0,1,16,3Zm-6.39.31-0.27.4,0,0L9.07,4.2,9.94,4.68l0.24-.43,0.26-.38Zm12.79,0-0.83.56L21.8,4.23l0.27,0.48,0.87-.49-0.28-.5,0,0ZM8.34,6.2h0v0l-0.1.64v0l0,0.34,1,0.07,0-.33,0.09-.56h0v0L9,6.36ZM23.67,6.26l-1,.17L22.78,7l0,0.38,1-.08,0-.39v0ZM9.31,9.2l-1,.19,0,0.16v0l0.16,0.59v0l0.08,0.21,0.94-.34-0.07-.2h0L9.34,9.34Zm13.37,0,0,0.09-0.15.55h0l-0.08.22,0.94,0.34,0.09-.26v0l0.16-.59v0l0-.11ZM10.42,11.74l-0.82.57L9.72,12.5l0,0L10.14,13l0,0,0.1,0.11,0.72-.7-0.1-.1h0l-0.35-.43Zm11.15,0-0.09.14h0l-0.35.43L21,12.48l0.72,0.69L21.85,13l0,0,0.39-.48,0,0,0.1-.15Zm-7.14,4.8h1.48a0.5,0.5,0,0,0,.17,0h1.49v1.51H14.43V16.56ZM10.66,21.5h0A4.36,4.36,0,0,1,14.9,25a4.38,4.38,0,0,1-1.06.19A4.36,4.36,0,0,1,9.6,21.69,4.38,4.38,0,0,1,10.66,21.5Zm10.69,2.39h0a4.27,4.27,0,0,1,1,.19,4.31,4.31,0,0,1-4.19,3.42,4.28,4.28,0,0,1-1-.19A4.31,4.31,0,0,1,21.35,23.89Z" transform="translate(-8.2 -0.07)"/></svg>