<svg id="Layer_1" data-name="Layer 1" xmlns="http://www.w3.org/2000/svg" viewBox="0 0 89.97 87.6"><defs><style>.cls-1{fill:#616161;}</style></defs><title>plum2</title><path class="cls-1" d="M92.7,54A20.94,20.94,0,0,0,94,38.1a20.3,20.3,0,0,0-7.7-10.5,21.25,21.25,0,0,0-12.1-3.9,19.83,19.83,0,0,0-3.5.3,20.23,20.23,0,0,0-5.9-11.7A21.05,21.05,0,0,0,50,6.2a20.65,20.65,0,0,0-14.7,6.1A20,20,0,0,0,29.4,24a20.68,20.68,0,0,0-3.5-.3,20.1,20.1,0,0,0-12.1,3.9A20.85,20.85,0,0,0,6.1,38.1,20.44,20.44,0,0,0,7.3,54a20.69,20.69,0,0,0,9.3,9.2A20.89,20.89,0,0,0,35,93.8a21.54,21.54,0,0,0,9.3-2.2,18.83,18.83,0,0,0,5.6-4.1,18.83,18.83,0,0,0,5.6,4.1,21.54,21.54,0,0,0,9.3,2.2A20.82,20.82,0,0,0,85.3,76.2a20.86,20.86,0,0,0-2.1-13A19.74,19.74,0,0,0,92.7,54ZM79.3,60.5a9.36,9.36,0,0,1-1.6.4l-0.8.2,0.6,0.6a6.42,6.42,0,0,1,1,1.3,16.9,16.9,0,0,1-3.7,23.5,16.72,16.72,0,0,1-9.9,3.2,17,17,0,0,1-13.6-6.9c-0.3-.4-0.6-0.9-0.9-1.4L50,80.7l-0.4.7c-0.3.5-.6,1-0.9,1.4A16.82,16.82,0,1,1,21.5,63c0.3-.4.7-0.9,1-1.3l0.6-.6L22.3,61c-0.5-.1-1.1-0.3-1.6-0.4a16.81,16.81,0,0,1,5.2-32.8,18.21,18.21,0,0,1,5.2.8c0.5,0.2,1.1.4,1.6,0.6l0.8,0.3-0.1-.8a9.7,9.7,0,0,1-.1-1.7,16.75,16.75,0,1,1,33.5,0,9.7,9.7,0,0,1-.1,1.7l-0.1.8,0.8-.3c0.5-.2,1-0.4,1.6-0.6a18.21,18.21,0,0,1,5.2-.8A16.74,16.74,0,0,1,79.3,60.5Z" transform="translate(-5.02 -6.2)"/><path class="cls-1" d="M75.4,42.5a2,2,0,0,0-1.7-.1,2.26,2.26,0,0,0-1.5,1.9L53.6,50.4a0.1,0.1,0,0,0-.1-0.1L63,41.8a1.81,1.81,0,0,0,1.6.1,2.37,2.37,0,0,0,1.3-1.1,2,2,0,0,0,.1-1.7,2.37,2.37,0,0,0-1.1-1.3,2,2,0,0,0-1.7-.1,2.37,2.37,0,0,0-1.3,1.1,2,2,0,0,0-.1,1.7v0.1l-9.5,8.5L52.2,49l5.2-11.7a2.2,2.2,0,1,0-2.1-2.2,2,2,0,0,0,.6,1.5L50.7,48.3H50.6V28.7a2.17,2.17,0,0,0,1.4-2,2.2,2.2,0,1,0-4.4,0,2.17,2.17,0,0,0,1.4,2V48.3H48.9L43.7,36.6a2.2,2.2,0,1,0-3.8-1.5,2.24,2.24,0,0,0,2.3,2.2L47.6,49l-0.1.1L38,40.6V40.5a2.5,2.5,0,0,0-.1-1.7,2.37,2.37,0,0,0-1.3-1.1,2.5,2.5,0,0,0-1.7.1,2.37,2.37,0,0,0-1.1,1.3,2.5,2.5,0,0,0,.1,1.7,2.37,2.37,0,0,0,1.3,1.1,2.22,2.22,0,0,0,1.6-.1l9.5,8.5a0.1,0.1,0,0,1-.1.1L27.6,44.3a2,2,0,0,0-1.5-1.9,2.5,2.5,0,0,0-1.7.1,2.37,2.37,0,0,0-1.1,1.3,2.13,2.13,0,0,0,1.4,2.7,2,2,0,0,0,2.3-.7l18.6,6.1V52L32.9,53.3a2.37,2.37,0,0,0-1.3-1.1,2.5,2.5,0,0,0-1.7.1,2.37,2.37,0,0,0-1.1,1.3,2.5,2.5,0,0,0,.1,1.7,2.37,2.37,0,0,0,1.3,1.1,2.5,2.5,0,0,0,1.7-.1A2.37,2.37,0,0,0,33,55V54.9l13-1.2v0.1L35,60.2l-0.1-.1a2.11,2.11,0,0,0-3,.5,2.28,2.28,0,0,0-.4,1.6,1.94,1.94,0,0,0,.9,1.4A2.28,2.28,0,0,0,34,64a1.94,1.94,0,0,0,1.4-.9,2.28,2.28,0,0,0,.4-1.6l11.1-6.4L47,55.2,35.4,71.1a2.2,2.2,0,0,0-2.3.8,2.11,2.11,0,0,0,.5,3,2,2,0,0,0,1.3.4,2.27,2.27,0,0,0,1.8-.9,2.31,2.31,0,0,0,.1-2.4L48.3,56.2h0.1L45.7,68.7a1.94,1.94,0,0,0-1.4.9,2.28,2.28,0,0,0-.4,1.6,1.94,1.94,0,0,0,.9,1.4,2.28,2.28,0,0,0,1.6.4,1.94,1.94,0,0,0,1.4-.9,2.28,2.28,0,0,0,.4-1.6,1.94,1.94,0,0,0-.9-1.4L47.2,69l2.7-12.5H50L52.7,69l-0.1.1a1.94,1.94,0,0,0-.9,1.4,1.88,1.88,0,0,0,.4,1.6,1.94,1.94,0,0,0,1.4.9,1.88,1.88,0,0,0,1.6-.4,1.94,1.94,0,0,0,.9-1.4,1.88,1.88,0,0,0-.4-1.6,1.94,1.94,0,0,0-1.4-.9L51.5,56.2h0.1L63.1,72.1a2.14,2.14,0,1,0,3.6-.2,2.09,2.09,0,0,0-2.4-.8L53,55.3l0.1-.1,11,6.4a2.28,2.28,0,0,0,.4,1.6,1.94,1.94,0,0,0,1.4.9,1.8,1.8,0,0,0,1.6-.4,1.94,1.94,0,0,0,.9-1.4,1.88,1.88,0,0,0-.4-1.6,2.12,2.12,0,0,0-3-.5l-0.1.1-11-6.4V53.8l12.7,1.3v0.1a2.37,2.37,0,0,0,1.1,1.3,2,2,0,0,0,1.7.1,2.37,2.37,0,0,0,1.3-1.1,2,2,0,0,0,.1-1.7,2.37,2.37,0,0,0-1.1-1.3,2,2,0,0,0-1.7-.1,2.76,2.76,0,0,0-1.3,1.1L54,52.2V52.1L72.6,46a2.09,2.09,0,0,0,2.3.7A2.17,2.17,0,0,0,76.3,44,1.72,1.72,0,0,0,75.4,42.5Z" transform="translate(-5.02 -6.2)"/></svg>