<svg xmlns="http://www.w3.org/2000/svg" viewBox="0 0 400 272"><defs><style>.cls-1{fill:#616161;}</style></defs><title>why</title><g id="Layer_2" data-name="Layer 2"><g id="Layer_1-2" data-name="Layer 1"><path class="cls-1" d="M336,272H224v-8c0-5.09,1.7-10.83,3.67-17.48,3.09-10.45,6.94-23.45,1.82-30.3-4-5.38-14.22-8.23-29.49-8.23s-25.47,2.84-29.49,8.22c-5.12,6.85-1.27,19.85,1.82,30.3,2,6.65,3.67,12.39,3.67,17.48v8H64V177.58c-1.6.44-3.28.94-4.94,1.43-7.91,2.34-16.87,5-25.69,5-10.38,0-18.52-3.74-24.2-11.12C3,164.86,0,152.8,0,136s3-28.86,9.18-36.88C14.86,91.74,23,88,33.37,88c8.82,0,17.78,2.65,25.69,5,1.66.49,3.34,1,4.94,1.43V0H176V8c0,5.09-1.7,10.83-3.67,17.48-3.09,10.45-6.94,23.45-1.82,30.3,4,5.38,14.22,8.22,29.49,8.22s25.47-2.84,29.49-8.22c5.12-6.85,1.27-19.85-1.82-30.3C225.7,18.83,224,13.09,224,8V0H336V94.42c1.6-.44,3.28-.94,4.94-1.43,7.91-2.34,16.87-5,25.69-5,10.38,0,18.52,3.74,24.2,11.12C397,107.14,400,119.2,400,136s-3,28.86-9.18,36.88C385.14,180.26,377,184,366.63,184c-8.82,0-17.78-2.65-25.69-5-1.66-.49-3.34-1-4.94-1.43Zm-94.42-16H320V160h8c5.09,0,10.83,1.7,17.48,3.67,6.86,2,14.65,4.33,21.15,4.33,5.64,0,17.37,0,17.37-32s-11.73-32-17.37-32c-6.5,0-14.28,2.3-21.15,4.33-6.65,2-12.39,3.67-17.48,3.67h-8V16H241.58c.44,1.6.94,3.28,1.43,4.94,3.89,13.14,9.21,31.14-.7,44.41C234.94,75.21,221.1,80,200,80s-34.94-4.79-42.31-14.65c-9.92-13.27-4.59-31.27-.7-44.41.49-1.66,1-3.34,1.43-4.94H80v96H72c-5.09,0-10.83-1.7-17.48-3.67-6.87-2-14.65-4.33-21.15-4.33C27.73,104,16,104,16,136s11.73,32,17.37,32c6.5,0,14.28-2.3,21.15-4.33C61.17,161.7,66.91,160,72,160h8v96h78.42c-.44-1.6-.94-3.28-1.43-4.94-3.89-13.14-9.21-31.14.7-44.41C165.06,196.79,178.9,192,200,192s34.94,4.79,42.31,14.65c9.92,13.27,4.59,31.27.7,44.41C242.52,252.72,242,254.4,241.58,256Z"/></g></g></svg>