<svg xmlns="http://www.w3.org/2000/svg" viewBox="0 0 75.99 77.61"><defs><style>.cls-1{fill:#333;}</style></defs><title>why</title><g id="Layer_2" data-name="Layer 2"><g id="Layer_1-2" data-name="Layer 1"><path class="cls-1" d="M74.42,32.59H1.15A1.15,1.15,0,0,0,0,33.74,49.81,49.81,0,0,0,5,55.55,42,42,0,0,0,18.06,71.3a1.14,1.14,0,0,0,.67.21H56.84a1.15,1.15,0,0,0,.67-.21,42,42,0,0,0,13.1-15.75,49.81,49.81,0,0,0,5-21.82A1.15,1.15,0,0,0,74.42,32.59ZM56.47,69.23H19.09C8.84,61.74,2.63,49,2.31,34.88H73.26C72.94,49,66.72,61.74,56.47,69.23Z"/><path class="cls-1" d="M56.84,75.32H18.72a1.15,1.15,0,0,0,0,2.29H56.84a1.15,1.15,0,1,0,0-2.29Z"/><path class="cls-1" d="M40.69,29.49a1.14,1.14,0,0,0,.84-.37,89.41,89.41,0,0,0,14-19.9c2.36-4.54,4.82-6.54,6.2-6.87a1.26,1.26,0,0,1,1.12.15l0,0c.45.29,9.86,7,10.28,7.29l0,0a1.27,1.27,0,0,1,.52,1c.14,1.42-.93,4.4-4.43,8.13A92.87,92.87,0,0,0,62,27.66,1.15,1.15,0,0,0,63.87,29a90.18,90.18,0,0,1,7.06-8.47c3.47-3.7,5.3-7.31,5-9.93A3.56,3.56,0,0,0,74.51,8c-.68-.51-9.68-6.9-10.39-7.36a3.56,3.56,0,0,0-3-.5c-2.56.62-5.36,3.55-7.7,8a87.2,87.2,0,0,1-13.6,19.4,1.15,1.15,0,0,0,.06,1.62A1.13,1.13,0,0,0,40.69,29.49Z"/></g></g></svg>