<svg xmlns="http://www.w3.org/2000/svg" viewBox="0 0 90 86.4"><defs><style>.cls-1{fill:#616161;}</style></defs><title>why_1</title><g id="Layer_2" data-name="Layer 2"><g id="Layer_1-2" data-name="Layer 1"><path class="cls-1" d="M55.8,0A1.8,1.8,0,0,0,54,1.8V9a1.8,1.8,0,0,0,1.8,1.8H63A1.8,1.8,0,0,0,64.8,9V1.8A1.8,1.8,0,0,0,63,0Z"/><path class="cls-1" d="M37.2,3.6A1.2,1.2,0,0,0,36,4.8V9.6a1.2,1.2,0,0,0,1.2,1.2H42a1.2,1.2,0,0,0,1.2-1.2V4.8A1.2,1.2,0,0,0,42,3.6Z"/><path class="cls-1" d="M5.4,7.2A5.39,5.39,0,0,0,0,12.6V34.2a5.39,5.39,0,0,0,5.4,5.4H27a5.39,5.39,0,0,0,5.4-5.4V12.6A5.39,5.39,0,0,0,27,7.2Z"/><path class="cls-1" d="M47.4,7.2a.6.6,0,0,0-.6.6v2.4a.6.6,0,0,0,.6.6h2.4a.6.6,0,0,0,.6-.6V7.8a.6.6,0,0,0-.6-.6Z"/><path class="cls-1" d="M38.4,14.4A2.4,2.4,0,0,0,36,16.8v9.6a2.4,2.4,0,0,0,2.4,2.4H48a2.4,2.4,0,0,0,2.4-2.4V16.8A2.4,2.4,0,0,0,48,14.4Z"/><path class="cls-1" d="M55.2,14.4A1.2,1.2,0,0,0,54,15.6v4.8a1.2,1.2,0,0,0,1.2,1.2H60a1.2,1.2,0,0,0,1.2-1.2V15.6A1.2,1.2,0,0,0,60,14.4H55.2Z"/><path class="cls-1" d="M65.4,14.4a.6.6,0,0,0-.6.6v2.4a.6.6,0,0,0,.6.6h2.4a.6.6,0,0,0,.6-.6V15a.6.6,0,0,0-.6-.6Z"/><path class="cls-1" d="M54.6,25.2a.6.6,0,0,0-.6.6v2.4a.6.6,0,0,0,.6.6H57a.6.6,0,0,0,.6-.6V25.8a.6.6,0,0,0-.6-.6H54.6Z"/><path class="cls-1" d="M83.4,28.8a.6.6,0,0,0-.6.6v2.4a.6.6,0,0,0,.6.6h2.4a.6.6,0,0,0,.6-.6V29.4a.6.6,0,0,0-.6-.6Z"/><path class="cls-1" d="M37.2,32.4A1.2,1.2,0,0,0,36,33.6v4.8a1.2,1.2,0,0,0,1.2,1.2H42a1.2,1.2,0,0,0,1.2-1.2V33.6A1.2,1.2,0,0,0,42,32.4Z"/><path class="cls-1" d="M49.8,32.4a3,3,0,0,0-3,3v12a3,3,0,0,0,3,3h12a3,3,0,0,0,3-3v-12a3,3,0,0,0-3-3Z"/><path class="cls-1" d="M70.2,32.4a1.8,1.8,0,0,0-1.8,1.8v7.2a1.8,1.8,0,0,0,1.8,1.8h7.2a1.8,1.8,0,0,0,1.8-1.8V34.2a1.8,1.8,0,0,0-1.8-1.8Z"/><path class="cls-1" d="M84,36a1.2,1.2,0,0,0-1.2,1.2V42A1.2,1.2,0,0,0,84,43.2h4.8A1.2,1.2,0,0,0,90,42V37.2A1.2,1.2,0,0,0,88.8,36Z"/><path class="cls-1" d="M11.4,43.2a.6.6,0,0,0-.6.6v2.4a.6.6,0,0,0,.6.6h2.4a.6.6,0,0,0,.6-.6V43.8a.6.6,0,0,0-.6-.6Z"/><path class="cls-1" d="M22.2,43.2A4.19,4.19,0,0,0,18,47.4V64.2a4.19,4.19,0,0,0,4.2,4.2H39a4.19,4.19,0,0,0,4.2-4.2V47.4A4.19,4.19,0,0,0,39,43.2H22.2Z"/><path class="cls-1" d="M69,46.8a.6.6,0,0,0-.6.6v2.4a.6.6,0,0,0,.6.6h2.4a.6.6,0,0,0,.6-.6V47.4a.6.6,0,0,0-.6-.6Z"/><path class="cls-1" d="M78,46.8a2.4,2.4,0,0,0-2.4,2.4v9.6A2.4,2.4,0,0,0,78,61.2h9.6A2.4,2.4,0,0,0,90,58.8V49.2a2.4,2.4,0,0,0-2.4-2.4Z"/><path class="cls-1" d="M8.4,50.4a1.2,1.2,0,0,0-1.2,1.2v4.8a1.2,1.2,0,0,0,1.2,1.2h4.8a1.2,1.2,0,0,0,1.2-1.2V51.6a1.2,1.2,0,0,0-1.2-1.2Z"/><path class="cls-1" d="M51,54a4.19,4.19,0,0,0-4.2,4.2V75A4.19,4.19,0,0,0,51,79.2H67.8A4.19,4.19,0,0,0,72,75V58.2A4.19,4.19,0,0,0,67.8,54Z"/><path class="cls-1" d="M2.4,61.2A2.4,2.4,0,0,0,0,63.6v9.6a2.4,2.4,0,0,0,2.4,2.4H12a2.4,2.4,0,0,0,2.4-2.4V63.6A2.4,2.4,0,0,0,12,61.2H2.4Z"/><path class="cls-1" d="M19.2,72A1.2,1.2,0,0,0,18,73.2V78a1.2,1.2,0,0,0,1.2,1.2H24A1.2,1.2,0,0,0,25.2,78V73.2A1.2,1.2,0,0,0,24,72Z"/><path class="cls-1" d="M31.2,72a2.4,2.4,0,0,0-2.4,2.4V84a2.4,2.4,0,0,0,2.4,2.4h9.6A2.4,2.4,0,0,0,43.2,84V74.4A2.4,2.4,0,0,0,40.8,72Z"/><path class="cls-1" d="M47.4,82.8a.6.6,0,0,0-.6.6v2.4a.6.6,0,0,0,.6.6h2.4a.6.6,0,0,0,.6-.6V83.4a.6.6,0,0,0-.6-.6Z"/></g></g></svg>